HIERARCHY
ROOT Hips
{
  OFFSET 0.0502701 92.146 0
  CHANNELS 6 Xposition Yposition Zposition Zrotation Xrotation Yrotation
  JOINT Bip01_Pelvis
  {
    OFFSET 0 0 0
    CHANNELS 6 Xposition Yposition Zposition Zrotation Xrotation Yrotation
    JOINT BN_Tai_01
    {
      OFFSET -4.6544 -2.06234 0
      CHANNELS 6 Xposition Yposition Zposition Zrotation Xrotation Yrotation
      JOINT BN_Tai_R_01
      {
        OFFSET 10.2279 -0.119812 3.68897
        CHANNELS 6 Xposition Yposition Zposition Zrotation Xrotation Yrotation
        JOINT BN_Tai_R_02
        {
          OFFSET 15.0421 0 1.52588e-005
          CHANNELS 6 Xposition Yposition Zposition Zrotation Xrotation Yrotation
          End Site
          {
            OFFSET 0 0 0
          }
        }
      }
      JOINT BN_Tai_L_01
      {
        OFFSET 10.2279 -0.119797 -3.68907
        CHANNELS 6 Xposition Yposition Zposition Zrotation Xrotation Yrotation
        JOINT BN_Tai_L_02
        {
          OFFSET 15.0421 0 0
          CHANNELS 6 Xposition Yposition Zposition Zrotation Xrotation Yrotation
          End Site
          {
            OFFSET 0 0 0
          }
        }
      }
    }
    JOINT Bip01_Spine
    {
      OFFSET 2.7319 1.49192 0
      CHANNELS 6 Xposition Yposition Zposition Zrotation Xrotation Yrotation
      JOINT Bip01_R_Thigh
      {
        OFFSET -2.85206 -1.24717 -6.20578
        CHANNELS 6 Xposition Yposition Zposition Zrotation Xrotation Yrotation
        JOINT Bip01_R_Calf
        {
          OFFSET 6.73247 0 0
          CHANNELS 6 Xposition Yposition Zposition Zrotation Xrotation Yrotation
          JOINT Bip01_R_HorseLink
          {
            OFFSET 8.08523 0 0
            CHANNELS 6 Xposition Yposition Zposition Zrotation Xrotation Yrotation
            JOINT Bip01_R_Foot
            {
              OFFSET 8.97518 0 0
              CHANNELS 6 Xposition Yposition Zposition Zrotation Xrotation Yrotation
              JOINT BN_Toe_R_30
              {
                OFFSET 1.58762 -0.234982 -0.295153
                CHANNELS 6 Xposition Yposition Zposition Zrotation Xrotation Yrotation
                JOINT BN_Toe_R_31
                {
                  OFFSET 3.03849 0 0
                  CHANNELS 6 Xposition Yposition Zposition Zrotation Xrotation Yrotation
                  End Site
                  {
                    OFFSET 0 0 0
                  }
                }
              }
              JOINT BN_Toe_R_00
              {
                OFFSET 1.65463 0.933666 1.02414
                CHANNELS 6 Xposition Yposition Zposition Zrotation Xrotation Yrotation
                JOINT BN_Toe_R_01
                {
                  OFFSET 3.51775 0 0
                  CHANNELS 6 Xposition Yposition Zposition Zrotation Xrotation Yrotation
                  End Site
                  {
                    OFFSET 0 0 0
                  }
                }
              }
              JOINT BN_Toe_R_20
              {
                OFFSET 1.47309 1.0106 -1.16708
                CHANNELS 6 Xposition Yposition Zposition Zrotation Xrotation Yrotation
                JOINT BN_Toe_R_21
                {
                  OFFSET 3.94896 0 0
                  CHANNELS 6 Xposition Yposition Zposition Zrotation Xrotation Yrotation
                  End Site
                  {
                    OFFSET 0 0 0
                  }
                }
              }
              JOINT BN_Toe_R_10
              {
                OFFSET 1.07522 1.64225 0.0223596
                CHANNELS 6 Xposition Yposition Zposition Zrotation Xrotation Yrotation
                JOINT BN_Toe_R_11
                {
                  OFFSET 4.09655 0 0
                  CHANNELS 6 Xposition Yposition Zposition Zrotation Xrotation Yrotation
                  End Site
                  {
                    OFFSET 0 0 0
                  }
                }
              }
              JOINT Bip01_R_Toe0
              {
                OFFSET 2.04238 1.88275 0
                CHANNELS 6 Xposition Yposition Zposition Zrotation Xrotation Yrotation
                End Site
                {
                  OFFSET 0 0 0
                }
              }
            }
          }
        }
      }
      JOINT Bip01_L_Thigh
      {
        OFFSET -2.85154 -1.24849 6.20577
        CHANNELS 6 Xposition Yposition Zposition Zrotation Xrotation Yrotation
        JOINT Bip01_L_Calf
        {
          OFFSET 6.73247 0 0
          CHANNELS 6 Xposition Yposition Zposition Zrotation Xrotation Yrotation
          JOINT Bip01_L_HorseLink
          {
            OFFSET 8.08524 0 0
            CHANNELS 6 Xposition Yposition Zposition Zrotation Xrotation Yrotation
            JOINT Bip01_L_Foot
            {
              OFFSET 8.97521 0 0
              CHANNELS 6 Xposition Yposition Zposition Zrotation Xrotation Yrotation
              JOINT BN_Toe_L_00
              {
                OFFSET 1.65461 0.933701 -1.02419
                CHANNELS 6 Xposition Yposition Zposition Zrotation Xrotation Yrotation
                JOINT BN_Toe_L_01
                {
                  OFFSET 3.51778 0 0
                  CHANNELS 6 Xposition Yposition Zposition Zrotation Xrotation Yrotation
                  End Site
                  {
                    OFFSET 0 0 0
                  }
                }
              }
              JOINT BN_Toe_L_10
              {
                OFFSET 1.07523 1.6422 -0.0221281
                CHANNELS 6 Xposition Yposition Zposition Zrotation Xrotation Yrotation
                JOINT BN_Toe_L_11
                {
                  OFFSET 4.09657 0 0
                  CHANNELS 6 Xposition Yposition Zposition Zrotation Xrotation Yrotation
                  End Site
                  {
                    OFFSET 0 0 0
                  }
                }
              }
              JOINT BN_Toe_L_30
              {
                OFFSET 1.58761 -0.234954 0.295135
                CHANNELS 6 Xposition Yposition Zposition Zrotation Xrotation Yrotation
                JOINT BN_Toe_L_31
                {
                  OFFSET 3.03847 0 0
                  CHANNELS 6 Xposition Yposition Zposition Zrotation Xrotation Yrotation
                  End Site
                  {
                    OFFSET 0 0 0
                  }
                }
              }
              JOINT BN_Toe_L_20
              {
                OFFSET 1.4731 1.01055 1.1673
                CHANNELS 6 Xposition Yposition Zposition Zrotation Xrotation Yrotation
                JOINT BN_Toe_L_21
                {
                  OFFSET 3.94897 0 0
                  CHANNELS 6 Xposition Yposition Zposition Zrotation Xrotation Yrotation
                  End Site
                  {
                    OFFSET 0 0 0
                  }
                }
              }
              JOINT Bip01_L_Toe0
              {
                OFFSET 2.04238 1.88276 0
                CHANNELS 6 Xposition Yposition Zposition Zrotation Xrotation Yrotation
                End Site
                {
                  OFFSET 0 0 0
                }
              }
            }
          }
        }
      }
      JOINT Bip01_Spine1
      {
        OFFSET 8.6167 -0.00679016 0
        CHANNELS 6 Xposition Yposition Zposition Zrotation Xrotation Yrotation
        JOINT BN_Wing_R_01
        {
          OFFSET 0.267445 -6.12421 -7.49305
          CHANNELS 6 Xposition Yposition Zposition Zrotation Xrotation Yrotation
          JOINT BN_Wing_R_02
          {
            OFFSET 14.7158 0 0
            CHANNELS 6 Xposition Yposition Zposition Zrotation Xrotation Yrotation
            JOINT BN_Wing_R_03
            {
              OFFSET 19.0858 0 0
              CHANNELS 6 Xposition Yposition Zposition Zrotation Xrotation Yrotation
              JOINT BN_Wing_R_05
              {
                OFFSET 2.68908 -0.270637 0.785261
                CHANNELS 6 Xposition Yposition Zposition Zrotation Xrotation Yrotation
                JOINT BN_Wing_R_06
                {
                  OFFSET 21.1083 0 0
                  CHANNELS 6 Xposition Yposition Zposition Zrotation Xrotation Yrotation
                  End Site
                  {
                    OFFSET 0 0 0
                  }
                }
              }
              JOINT BN_Wing_R_04
              {
                OFFSET 27.642 0 0
                CHANNELS 6 Xposition Yposition Zposition Zrotation Xrotation Yrotation
                End Site
                {
                  OFFSET 0 0 0
                }
              }
            }
          }
        }
        JOINT BN_Wing_L_01
        {
          OFFSET 0.267452 -6.12421 7.49305
          CHANNELS 6 Xposition Yposition Zposition Zrotation Xrotation Yrotation
          JOINT BN_Wing_L_02
          {
            OFFSET 14.7158 0 0
            CHANNELS 6 Xposition Yposition Zposition Zrotation Xrotation Yrotation
            JOINT BN_Wing_L_03
            {
              OFFSET 19.0858 0 0
              CHANNELS 6 Xposition Yposition Zposition Zrotation Xrotation Yrotation
              JOINT BN_Wing_L_05
              {
                OFFSET 2.68908 -0.270635 -0.785254
                CHANNELS 6 Xposition Yposition Zposition Zrotation Xrotation Yrotation
                JOINT BN_Wing_L_06
                {
                  OFFSET 21.1083 0 0
                  CHANNELS 6 Xposition Yposition Zposition Zrotation Xrotation Yrotation
                  End Site
                  {
                    OFFSET 0 0 0
                  }
                }
              }
              JOINT BN_Wing_L_04
              {
                OFFSET 27.642 0 1.14441e-005
                CHANNELS 6 Xposition Yposition Zposition Zrotation Xrotation Yrotation
                End Site
                {
                  OFFSET 0 0 0
                }
              }
            }
          }
        }
        JOINT Bip01_Neck
        {
          OFFSET 7.59958 -1.43237 0
          CHANNELS 6 Xposition Yposition Zposition Zrotation Xrotation Yrotation
          JOINT Bip01_Neck1
          {
            OFFSET 3.64749 -0.00262451 0
            CHANNELS 6 Xposition Yposition Zposition Zrotation Xrotation Yrotation
            JOINT Bip01_Neck2
            {
              OFFSET 3.32331 -0.00284576 0
              CHANNELS 6 Xposition Yposition Zposition Zrotation Xrotation Yrotation
              JOINT Bip01_Head
              {
                OFFSET 4.63256 -0.573471 0
                CHANNELS 6 Xposition Yposition Zposition Zrotation Xrotation Yrotation
                JOINT BN_Jaw
                {
                  OFFSET 1.05386 2.23561 0
                  CHANNELS 6 Xposition Yposition Zposition Zrotation Xrotation Yrotation
                  End Site
                  {
                    OFFSET 0 0 0
                  }
                }
              }
            }
          }
        }
      }
    }
  }
}
MOTION
Frames:	4
Frame Time:	0.0333333
-0.00794742 97.2243 -4.11504e-007 133.698 -90 178.534 0 0 0 -89.995 19.6253 -89.9951 -4.6544 -2.06235 1.85442e-015 -10.5228 1.96637 179.614 10.228 -0.119785 3.68891 35.9547 78.5158 -27.1479 15.0421 -2.38419e-007 1.14441e-005 6.12932 -5.26302 -39.0745 10.2278 -0.119782 -3.68914 -133.998 76.4183 147.417 15.0421 4.76837e-007 3.8147e-006 -7.76066 6.17659 -38.8751 2.89276 1.15114 -9.3107e-010 -1.1261 3.40033e-007 -1.72994e-005 -7.6294e-006 -7.6294e-006 -6.20578 -114.032 -17.7023 -174.8 6.73249 1.42109e-014 5.72205e-006 -80.6396 2.18667e-006 1.06024e-005 8.08523 -1.14441e-005 1.90735e-006 121.614 8.78499e-006 -5.60751e-006 8.97521 3.8147e-006 -1.90735e-006 -59.7619 -6.84776 -14.833 1.58763 -0.234993 -0.295153 142.849 1.49629 166.588 3.03846 4.26326e-014 -3.8147e-006 -53.5244 1.75775e-006 1.71265e-006 1.65462 0.933647 1.02414 66.5811 30.5722 -41.3129 3.51774 1.42109e-014 1.42109e-014 32.7075 1.30599e-005 -7.60573e-006 1.4731 1.0106 -1.16708 65.794 -18.2531 26.4938 3.94896 -3.8147e-006 7.10543e-015 14.3448 -0.0294328 3.3758 1.07522 1.64224 0.0223598 51.9375 -6.00922 -1.29585 4.09657 -7.6294e-006 4.76837e-007 59.1092 5.66745e-006 -8.44923e-006 2.04238 1.88277 -3.65485e-010 98.3687 -4.14961 26.5341 1.42109e-014 -3.8147e-006 6.20577 -94.3734 5.74522 169.277 6.73248 7.6294e-006 9.53674e-007 -62.3175 -2.69236e-006 -5.64305e-006 8.08526 -3.55271e-015 1.06581e-014 116.537 6.92146e-006 1.59279e-005 8.9752 0 0 -61.9333 1.5813 9.06014 1.65462 0.933708 -1.02418 56.1049 -54.7139 37.6111 3.51775 3.81469e-006 7.62939e-006 42.6517 -0.0193244 -0.0209469 1.07522 1.6422 -0.0221214 51.3973 -4.89892 5.45303 4.09656 -3.81469e-006 -9.53674e-007 42.4317 -5.45836e-007 1.85125e-006 1.58763 -0.234955 0.295141 161.228 6.39488 -179.803 3.03848 -2.84217e-014 -9.53674e-007 -46.9677 7.93362e-006 6.8845e-006 1.4731 1.01057 1.16731 62.2388 15.0518 -23.1865 3.94895 1.90735e-006 0 36.573 9.34506e-006 6.74362e-006 2.04238 1.88279 1.24147e-009 131.011 -2.19983 -36.1511 8.61718 -0.0068512 1.73472e-018 4.6455 8.584e-006 -1.80575e-005 0.267456 -6.12425 -7.49305 -67.416 -25.2547 142.911 14.7158 1.52588e-005 -2.77112e-013 53.415 1.17747 8.15432 19.0858 -9.53674e-007 -1.90735e-006 -43.4464 -2.79443 37.3695 2.6891 -0.270637 0.785278 -48.7438 2.21244 4.39349 21.1083 -7.10542e-015 -3.8147e-006 -8.20815 2.01023 -30.4236 27.642 7.62939e-006 -7.6294e-006 -2.67149 -0.0660921 4.33366 0.267464 -6.12425 7.49305 -67.7867 25.6939 -142.724 14.7158 -7.62939e-006 7.62939e-006 53.415 -1.17747 -8.15432 19.0859 -1.42108e-013 5.72205e-006 -43.4464 2.79443 -37.3694 2.78104 -0.231988 -0.741103 -48.9253 -1.85667 -2.38946 21.1083 0.00204468 -0.00101471 -8.20817 -2.01024 30.4236 27.642 0.00260925 -0.00118256 -2.67149 0.0660909 -4.33366 7.59942 -1.43242 1.35308e-016 -8.1097 -1.41313e-006 9.91753e-006 3.64919 -0.0022583 1.86265e-009 30.4139 8.63947e-006 -5.07172e-006 3.32335 -0.00286102 -9.31323e-010 5.74126 6.3913e-010 3.74464e-012 4.63259 -0.573471 8.1532e-017 -3.30178 9.42463e-006 1.05784e-005 1.05387 2.2356 -1.86265e-009 -77.5472 -0.0302277 -179.961 
-0.0162582 97.7762 -4.82401e-007 131.861 -90 177.273 0 0 0 -89.995 19.2144 -89.9951 -4.6544 -2.06235 1.40339e-015 -11.0628 1.96992 179.633 10.228 -0.119785 3.68891 33.6817 78.3726 -23.0752 15.0421 -2.38419e-007 1.14441e-005 6.12366 -5.30762 -37.9597 10.2278 -0.119782 -3.68914 -135.384 76.3129 150.592 15.0421 4.76837e-007 3.8147e-006 -7.73692 6.21322 -37.7651 2.90146 1.13051 -9.31087e-010 -0.709925 2.14368e-007 -1.73014e-005 -7.6294e-006 -7.6294e-006 -6.20578 -113.23 -17.5793 -174.645 6.73249 -1.42109e-014 5.72205e-006 -80.2823 1.91999e-006 1.06455e-005 8.08523 -1.14441e-005 1.90735e-006 121.851 8.76171e-006 -5.6438e-006 8.97521 3.8147e-006 -1.90735e-006 -59.4739 -6.83375 -14.6973 1.58763 -0.234993 -0.295153 143.724 1.27445 166.553 3.03846 7.10543e-014 -3.8147e-006 -55.2954 1.58308e-006 1.91808e-006 1.65462 0.933647 1.02414 64.8801 31.9671 -40.587 3.51774 2.13163e-014 -2.84217e-014 30.3922 1.31788e-005 -6.61518e-006 1.4731 1.0106 -1.16708 66.0332 -19.1706 26.9252 3.94896 -3.8147e-006 1.42109e-014 13.2098 0.000223921 2.55609 1.07522 1.64224 0.0223598 50.1191 -5.97809 -1.49613 4.09657 -7.6294e-006 4.76837e-007 57.2865 5.94203e-006 -8.27259e-006 2.04238 1.88277 -3.78341e-010 97.5167 -3.82992 26.7356 4.26326e-014 -3.8147e-006 6.20577 -93.6107 5.52464 169.077 6.73248 7.6294e-006 9.53674e-007 -61.1847 -3.21074e-006 -5.34664e-006 8.08526 0 1.06581e-014 117.158 1.60198e-005 1.12917e-005 8.9752 0 5.32907e-015 -63.6883 1.32922 9.23175 1.65462 0.933708 -1.02418 56.586 -55.3245 38.0812 3.51775 3.81469e-006 7.62939e-006 40.8039 -0.0201564 -0.0233176 1.07522 1.6422 -0.0221214 51.3617 -4.9018 5.4504 4.09656 -3.81469e-006 -9.53674e-007 39.7655 -4.81651e-007 1.76851e-006 1.58763 -0.234955 0.295141 161.002 6.40271 -179.777 3.03848 -1.42108e-014 -9.53674e-007 -50.7578 7.62938e-006 7.3167e-006 1.4731 1.01057 1.16731 62.1069 15.1002 -23.2164 3.94895 1.90735e-006 7.10543e-015 32.0973 2.81095e-006 -1.15101e-006 2.04238 1.88279 1.22095e-009 130.887 -2.09842 -35.8709 8.61718 -0.0068512 1.73472e-018 4.62452 8.59061e-006 -1.80543e-005 0.267456 -6.12425 -7.49305 -67.9138 -25.5864 137.619 14.7158 1.52588e-005 -3.12639e-013 59.0569 1.80685 7.7235 19.0859 -9.53674e-007 -1.90735e-006 -49.2791 -7.15899 46.3745 2.6891 -0.270637 0.785278 -47.798 2.27004 5.15782 21.1083 -1.77636e-014 -3.8147e-006 -7.62746 1.77128 -26.1634 27.642 7.62939e-006 -7.6294e-006 -2.66987 -0.0640543 7.25144 0.267464 -6.12425 7.49305 -68.8621 26.6384 -137.146 14.7158 -7.62939e-006 7.62939e-006 59.0569 -1.80685 -7.7235 19.0859 -2.13163e-013 5.72205e-006 -49.2791 7.15901 -46.3745 3.00962 -0.135735 -0.630303 -48.6291 -1.43587 -2.87103 21.1083 0.00204467 -0.00101471 -7.62747 -1.77129 26.1634 27.642 0.00260925 -0.00118256 -2.66987 0.0640539 -7.25146 7.59942 -1.43242 -6.93889e-016 -8.47436 -1.47622e-006 9.90833e-006 3.64919 -0.0022583 1.86265e-009 28.9198 8.76878e-006 -4.84473e-006 3.32335 -0.00286102 -9.31323e-010 5.03753 6.39051e-010 1.15968e-011 4.63259 -0.573471 -3.1225e-017 -1.8468 9.6902e-006 1.03357e-005 1.05387 2.2356 -1.86265e-009 -78.5981 -0.0304718 -179.962 
-0.0246503 98.3333 -5.5396e-007 137.901 -90 -176.129 0 0 0 -89.995 18.6807 -89.9951 -4.6544 -2.06235 8.41341e-016 -11.5726 1.97311 179.65 10.228 -0.119785 3.68891 31.6306 78.1844 -19.3182 15.0421 -2.38419e-007 1.14441e-005 6.11586 -5.37052 -35.9274 10.2278 -0.119782 -3.68914 -136.644 76.1764 153.549 15.0421 4.76837e-007 3.8147e-006 -7.68813 6.25739 -35.7359 2.91235 1.10167 -9.31109e-010 -0.382321 1.1544e-007 -1.73023e-005 -7.6294e-006 -7.6294e-006 -6.20578 -112.817 -17.4819 -174.505 6.73249 -1.42109e-014 5.72205e-006 -80.2391 -7.61215e-006 1.22853e-005 8.08523 -1.14441e-005 1.90735e-006 122.216 2.50003e-007 -3.58821e-007 8.97521 3.8147e-006 -1.90735e-006 -59.4905 -6.7727 -14.694 1.58763 -0.234993 -0.295153 144.606 1.05102 166.521 3.03846 5.68434e-014 -3.8147e-006 -56.6165 1.81548e-006 1.8221e-006 1.65462 0.933647 1.02414 63.2154 33.3455 -39.9009 3.51774 0 -2.84217e-014 28.6555 -0.00272086 -0.00500881 1.4731 1.0106 -1.16708 66.2846 -19.9495 27.3652 3.94896 -3.8147e-006 2.13163e-014 12.4394 -0.00717588 1.93924 1.07522 1.64224 0.0223598 48.4428 -5.94793 -1.68406 4.09657 -7.6294e-006 4.76837e-007 55.9298 6.15567e-006 -8.12944e-006 2.04238 1.88277 -3.78474e-010 96.6554 -3.51016 26.9439 0 -3.8147e-006 6.20577 -93.383 5.40376 168.853 6.73248 7.6294e-006 9.53674e-007 -60.5829 -2.83639e-006 -5.544e-006 8.08526 0 1.24345e-014 117.977 1.61904e-005 1.10696e-005 8.9752 0 -1.77636e-015 -65.7778 1.04792 9.49423 1.65462 0.933708 -1.02418 57.0883 -55.9372 38.5719 3.51775 3.81469e-006 7.62939e-006 38.9427 -0.0207451 -0.0256393 1.07522 1.6422 -0.0221214 51.326 -4.90468 5.44776 4.09656 -3.81469e-006 -9.53674e-007 37.0785 -4.19093e-007 1.68051e-006 1.58763 -0.234955 0.295141 160.772 6.41042 -179.751 3.03848 0 -9.53674e-007 -54.036 7.32792e-006 7.6622e-006 1.4731 1.01057 1.16731 61.9741 15.1491 -23.2465 3.94895 1.90735e-006 7.10543e-015 27.585 6.81891e-006 7.88713e-006 2.04238 1.88279 1.10497e-009 130.532 -1.8121 -35.0734 8.61718 -0.0068512 1.73472e-018 4.58179 8.60407e-006 -1.80479e-005 0.267456 -6.12425 -7.49305 -68.5681 -25.5142 131.174 14.7158 1.52588e-005 -3.19744e-013 66.7525 2.67266 7.14739 19.0859 -9.53674e-007 -1.90735e-006 -55.0524 -10.7158 55.3184 2.6891 -0.270637 0.785278 -46.4351 2.36558 5.59766 21.1083 -4.44089e-015 -3.8147e-006 -6.68589 1.40616 -20.1744 27.642 7.62939e-006 -7.62939e-006 -2.66708 -0.0634744 9.2614 0.267464 -6.12425 7.49305 -70.2843 27.1629 -130.306 14.7158 -7.62939e-006 7.62939e-006 66.7525 -2.67267 -7.14739 19.0859 -1.98952e-013 5.72205e-006 -55.0524 10.7158 -55.3184 3.31287 -0.00923399 -0.484678 -48.1443 -0.995202 -4.03734 21.1083 0.00204467 -0.00101471 -6.68654 -1.40656 20.1733 27.642 0.00260925 -0.00118256 -2.66526 0.0637823 -9.37721 7.59942 -1.43242 -1.05124e-015 -8.66762 -1.50964e-006 9.9033e-006 3.64919 -0.0022583 1.86265e-009 27.1497 8.91424e-006 -4.57156e-006 3.32335 -0.00286102 -9.31323e-010 4.27022 6.38773e-010 2.01535e-011 4.63259 -0.573471 -9.02056e-017 -0.377545 9.95203e-006 1.00838e-005 1.05387 2.2356 -1.86264e-009 -79.6593 -0.0307159 -179.963 
-0.0331135 98.8527 -6.20581e-007 132.342 -90 178.825 0 0 0 -89.995 18.0864 -89.9951 -4.6544 -2.06235 1.24033e-015 -12.0273 1.97581 179.666 10.228 -0.119785 3.68891 29.927 77.9765 -16.0906 15.0421 -2.38419e-007 1.14441e-005 6.11035 -5.43231 -33.9343 10.2278 -0.119782 -3.68914 -137.701 76.0232 156.122 15.0421 4.76837e-007 3.8147e-006 -7.64181 6.30221 -33.7459 2.92302 1.07339 -9.31126e-010 -0.143382 4.32837e-008 -1.73026e-005 -7.6294e-006 -7.6294e-006 -6.20578 -112.81 -17.4237 -174.4 6.73249 -4.26326e-014 5.72205e-006 -80.4929 1.888e-006 1.06513e-005 8.08523 -1.14441e-005 1.90735e-006 122.648 2.4729e-007 -3.60691e-007 8.97521 3.8147e-006 -1.90735e-006 -59.7553 -6.67715 -14.8103 1.58763 -0.234993 -0.295153 145.343 0.942345 166.515 3.03846 4.26326e-014 -3.8147e-006 -57.9119 1.38707e-006 2.14431e-006 1.65462 0.933647 1.02414 61.8633 34.4456 -39.3259 3.51774 7.10543e-015 -4.26326e-014 26.9525 -0.00512222 -0.0101043 1.4731 1.0106 -1.16708 66.5172 -20.5489 27.7712 3.94896 -3.8147e-006 1.42109e-014 11.6838 -0.00645467 1.33432 1.07522 1.64224 0.0223598 46.9982 -5.91588 -1.84437 4.09657 -7.6294e-006 4.76837e-007 54.5994 7.47615e-006 -7.19174e-006 2.04238 1.88277 -3.66043e-010 95.81 -3.19969 27.1526 0 -3.8147e-006 6.20577 -93.6024 5.39203 168.605 6.73248 7.6294e-006 9.53674e-007 -60.4346 -2.84254e-006 -5.53529e-006 8.08526 -3.55271e-015 7.10543e-015 118.904 1.63775e-005 1.08123e-005 8.9752 0 -5.32907e-015 -67.9863 0.75699 9.80881 1.65462 0.933708 -1.02418 57.5648 -56.3726 38.9842 3.51775 3.81469e-006 7.62939e-006 37.5944 -0.00853547 -0.0110542 1.07522 1.6422 -0.0221214 51.3151 -4.906 5.4466 4.09656 -3.81469e-006 -9.53674e-007 34.987 -3.69723e-007 1.60946e-006 1.58763 -0.234955 0.295141 160.458 6.40614 -179.719 3.03848 0 -9.53674e-007 -57.2506 6.98719e-006 7.97123e-006 1.4731 1.01057 1.16731 61.8816 15.177 -23.2649 3.94895 1.90735e-006 0 23.8979 5.69408e-006 8.3065e-006 2.04238 1.88279 9.17521e-010 130.18 -1.53607 -34.2899 8.61718 -0.0068512 0 4.50901 8.62699e-006 -1.8037e-005 0.267456 -6.12425 -7.49305 -69.7205 -25.0176 124.057 14.7158 1.52588e-005 -3.2685e-013 74.8038 3.58708 6.5667 19.0859 -9.53674e-007 -1.90735e-006 -60.0527 -12.7752 63.0527 2.6891 -0.270637 0.785278 -44.9198 2.48756 5.88601 21.1083 0 -3.8147e-006 -5.40608 0.968148 -13.7074 27.642 7.62939e-006 -7.6294e-006 -2.66437 -0.0628112 11.2323 0.267464 -6.12425 7.49305 -72.26 27.1515 -122.776 14.7158 -7.62939e-006 7.62939e-006 74.8038 -3.58709 -6.56671 19.0859 -1.98952e-013 5.72205e-006 -60.0526 12.7752 -63.0527 3.61026 0.11481 -0.341879 -47.4772 -0.610895 -5.32092 21.1083 0.00204467 -0.00101471 -5.47499 -1.00897 13.59 27.642 0.00260925 -0.00118256 -2.66453 0.0639751 -11.1787 7.59942 -1.43242 -6.5746e-016 -8.70582 -1.51624e-006 9.90229e-006 3.64919 -0.0022583 1.86265e-009 25.3077 9.05658e-006 -4.28266e-006 3.32335 -0.00286102 -9.31323e-010 3.4827 6.38488e-010 2.89293e-011 4.63259 -0.573471 1.42247e-016 1.06318 1.02024e-005 9.83042e-006 1.05387 2.2356 -1.86264e-009 -80.6998 -0.0309296 -179.963 
